<?xml version="1.0" encoding="UTF-8"?>
<svg width="72px" height="80px" viewBox="0 0 72 80" version="1.1" xmlns="http://www.w3.org/2000/svg" xmlns:xlink="http://www.w3.org/1999/xlink">
    <title>CMC logo</title>
    <g id="Page-1" stroke="none" stroke-width="1" fill="none" fill-rule="evenodd">
        <g id="Home-Round-Three" transform="translate(-135.000000, -50.000000)" fill="#FFFFFF">
            <path d="M203.999629,49.9998227 C205.595206,49.9998227 206.900057,51.1069593 206.994524,52.5039998 L207,52.6664368 L207,127.333012 C207,128.751143 205.754244,129.911169 204.182392,129.995151 L203.999629,130.00002 L137.999778,130.00002 C136.404582,130.00002 135.099928,128.892518 135.005475,127.49545 L135,127.333012 L135,52.6664368 C135,51.248305 136.245572,50.088645 137.817058,50.0046895 L137.999778,49.9998227 L203.999629,49.9998227 Z M140.569801,89.4557444 L140.161594,89.8656745 L140.449217,90.2608306 L139.958973,90.5177018 L140.044964,91.1256039 L139.498579,91.0438542 L139.397368,91.5191841 L139.083453,91.4941667 L139.56579,92.3674105 L138.947055,92.207063 L139.304854,93.0344087 L138.57443,92.9207472 L139.31711,93.8587997 L138.214457,93.7646398 L138.338995,94.0274206 L138.464125,94.2917773 L138.470846,94.3057633 L138.537464,94.4466091 L138.412927,94.5510123 L138.197457,94.5797724 L138.285819,94.234848 L137.947195,94.1052305 L138.163258,93.7441532 L138.092489,93.7541995 L137.949765,93.7417893 L138.036941,93.1801792 L137.754063,93.0373635 L137.791029,92.7235631 L137.944625,92.6156142 L137.595129,92.7966453 L137.681119,92.38967 L137.554407,92.3104812 L137.667875,91.8759277 L137.588408,91.8591838 L137.599082,91.8836102 L137.424927,92.0352902 L137.459521,92.4395077 L137.25611,92.3886851 L137.222306,92.6561935 L137.136711,92.6447683 L137.31739,93.1874677 L137.093617,93.090944 L137.213411,93.5501209 L136.975405,93.4886609 L137.227841,94.0183592 L136.830902,93.9622179 L136.950103,94.3786486 L136.518174,94.4749753 L136.647654,94.7131326 L136.352915,94.7095869 L136.382566,95.2227382 L136.295192,95.2688332 L136.295192,127.333012 C136.295192,128.049837 136.977216,128.640328 137.844842,128.703726 L137.999778,128.70936 L203.999629,128.70936 C204.887746,128.70936 205.619286,128.158693 205.697827,127.458117 L205.704808,127.333012 L205.704808,99.2335922 L204.870405,99.0614255 L204.960744,98.1962582 L204.173389,98.2017739 L204.517153,97.8470001 L203.270787,97.6917743 L203.630167,96.9859696 L202.528898,97.0736288 L203.266636,96.2062947 L202.546689,96.3105009 L202.902314,95.5456 L202.284765,95.6949163 L202.765322,94.8852993 L202.461094,94.9077559 L202.360673,94.4678837 L201.814684,94.5441177 L201.900477,93.9801437 L201.408256,93.7398195 L201.695682,93.3720446 L201.295192,92.9971782 L201.082679,93.1638292 L201.251497,93.6466446 L200.825104,93.6970733 L201.159379,94.4133183 L200.72745,94.5644074 L200.821941,94.585879 L200.997084,95.0612088 L200.034388,94.7818811 L199.940688,94.8854963 L200.494782,95.103561 L200.592435,95.5668747 L199.785115,95.7951827 L200.032609,96.689504 L199.341523,96.6341507 L200.020353,97.268843 L199.069912,97.4727247 L199.369396,98.1255399 L198.377641,97.6612413 L198.285127,98.0686106 L199.379478,98.6993632 L198.565238,98.856165 L199.342907,99.374241 L198.136473,99.6659789 L198.136077,99.7573809 L199.54533,100.452548 L197.709881,100.644611 L197.633182,100.957426 L197.071379,100.985595 L197.477411,100.395225 L196.680963,100.608562 L197.383711,100.045376 L196.950399,100.046361 L197.131275,99.7457586 L196.971551,99.7561989 L196.914619,99.5359674 L196.772488,99.6035339 L196.633124,99.2420627 L196.280465,99.2337892 L196.462725,98.8478915 L196.247255,98.6708001 L195.955679,98.9810548 L196.072112,99.1806027 L196.202975,99.4760833 L195.81592,99.5241482 L196.371793,99.8710424 L195.566054,99.7676242 L195.969121,99.9598836 L195.366991,100.210648 L195.555774,100.636731 L195.021053,100.707253 L195.495878,101.099848 L194.841956,101.224147 L195.068298,101.660079 L194.441854,101.374842 L194.403504,101.451864 L195.325281,101.744981 L194.568566,102.010322 L195.074624,102.308364 L194.275803,102.478954 L194.286083,102.494319 L195.193033,102.919418 L193.946075,103.135315 L193.921563,103.116996 L193.51296,103.498166 L193.664185,103.731989 L193.306386,103.725292 L193.312712,103.609463 L193.036949,103.627586 L193.07352,103.35338 L192.834526,103.53776 L192.727977,103.110495 L192.385993,103.103206 L192.567462,102.716521 L192.344283,102.532929 L192.140871,102.704111 L192.283397,103.348258 L192.138696,103.36579 L192.517845,103.517864 L191.681663,103.641572 L192.075044,103.829498 L191.421517,104.097203 L191.8744,104.640297 L191.174023,104.616067 L191.599231,104.969265 L190.9461,105.09317 L191.160581,105.504676 L190.499345,105.253517 L190.484717,105.348662 L191.493275,105.775927 L190.688524,105.888604 L191.178372,106.176993 L190.329144,106.358221 L190.332504,106.378511 L191.293224,106.860341 L190.981089,106.833157 L190.994531,106.847143 L189.965414,107.01931 L189.945844,107.06048 L191.323271,107.321882 L188.460089,107.614802 L188.763922,107.161928 L188.616058,107.171581 L188.550824,106.91924 L188.176025,106.965532 L188.229991,106.655868 L187.926554,106.649368 L188.108419,106.261303 L187.79747,105.989264 L187.594256,106.366297 L187.298528,106.171477 L186.367263,106.190585 L186.999835,105.787352 L185.906275,105.830887 L186.561186,105.210377 L185.860414,105.265534 L186.142502,104.697423 L185.533453,104.826252 L185.820285,104.482116 L185.350798,104.654874 L185.533848,104.239034 L185.473556,104.097203 L185.424927,103.910066 L185.050128,103.956554 L185.108048,103.614585 L184.785436,103.493832 L184.967894,103.244052 L184.75104,103.064794 L184.416567,103.28798 L184.74333,103.764295 L184.42487,103.870668 L184.85581,104.128918 L184.093955,104.128918 L184.656945,104.47857 L183.232273,104.311131 L183.50507,104.163982 L182.977267,104.075535 L183.036966,103.90455 L182.500861,103.839938 L182.842845,103.685106 L182.452034,103.631526 L182.912824,103.208201 L182.516675,103.22002 L182.648329,102.54593 L182.424754,102.333578 L182.487616,102.304818 L182.395893,102.306 L182.276495,102.192338 L182.151167,102.309152 L181.782891,102.313485 L181.8588,102.106649 L180.956395,101.827518 L182.295077,101.763103 L182.257913,101.629152 L180.924371,101.505444 L181.95329,101.056314 L181.109201,100.87548 L181.609724,100.579999 L181.067293,100.487612 L181.866509,100.080046 L181.825787,99.9216681 L181.121655,100.213603 L181.340288,99.7912626 L180.686168,99.6671608 L181.098131,99.3261761 L180.718192,99.3531634 L180.883847,98.8230711 L180.361184,98.6920747 L180.440058,98.3591665 L180.715425,98.2634308 L180.077713,98.4271271 L180.216285,98.093628 L179.980652,98.0205458 L180.192959,97.6169192 L179.922139,97.5887501 L180.039956,97.2905116 L179.947837,97.2264908 L179.739286,97.3988545 L179.936767,97.6222379 L179.591027,97.7715541 L179.650528,98.1170694 L179.275729,98.0709744 L179.211088,98.3233149 L179.063027,98.3138595 L179.385639,98.794311 L178.968931,98.7052729 L179.197448,99.1398264 L178.766706,99.08467 L179.241333,99.5783196 L178.49213,99.5255271 L178.720251,99.9214711 L178.486793,99.9468824 L177.581028,99.7526532 L178.316986,99.0645773 L177.432966,98.932005 L177.715054,98.2133961 L176.867407,97.8150882 L177.588342,97.4266297 L177.491479,97.391566 L176.371628,97.5528984 L177.106994,97.0354134 L177.096319,97.0125629 L176.439827,96.9203729 L176.596784,96.5189132 L176.806324,96.1119379 L176.29315,95.4949744 L175.888896,95.8702348 L176.148251,96.491138 L175.663938,96.5037452 L175.45677,97.1102684 L175.231811,96.9895154 L175.139693,97.391566 L174.825581,97.3685185 L175.106285,97.8966409 L174.370129,97.895065 L175.359117,98.7901743 L174.262987,98.4580541 L174.908409,99.5186325 L173.968643,99.465643 L174.34028,100.193904 L172.888921,100.192919 L173.416328,100.646384 L172.044239,100.888678 L172.768732,101.455803 L172.529738,101.70972 L172.242511,101.710114 L172.32435,102.425571 L171.23079,102.647181 L170.442644,102.652106 L170.330165,101.939604 L171.054856,101.819245 L169.990157,101.451667 L170.247535,101.148701 L169.652719,100.616639 L170.794513,99.8810887 L169.710442,99.6447042 L169.792676,98.871333 L169.500507,98.870545 L169.268234,98.6055974 L170.00439,97.985876 L168.623405,97.7240802 L169.156545,97.2312185 L167.687,97.2322034 L168.061206,96.4450431 L167.117289,96.5021693 L167.767851,95.3539316 L166.678442,95.7085084 L167.665848,94.7478024 L166.917238,94.7497722 L167.199919,94.1779187 L166.876517,94.2035271 L166.783805,93.7699585 L166.557463,93.9007579 L166.348912,93.244003 L165.867563,93.2304109 L166.126523,92.5640036 L165.717327,92.1554524 L165.197827,92.8265873 L165.408158,93.2644896 L165.56551,93.6949064 L164.910797,93.7937939 L164.894983,93.8304335 L165.613744,94.3743149 L164.512474,94.2035271 L164.399007,94.2476522 L165.126267,94.6688105 L164.283364,95.0943026 L164.566638,95.8694468 L163.669571,96.0140353 L164.410274,96.7582525 L163.460625,96.9769082 L163.767818,97.6947291 L162.797017,97.1581363 L162.840506,97.0649614 L162.237388,97.11736 L162.619501,96.6252862 L162.269609,96.6810336 L162.452858,96.2492379 L162.116408,96.3382761 L162.379716,95.8527029 L162.259132,95.8625523 L162.206945,95.6117877 L161.902717,95.6580797 L161.951742,95.3038969 L161.677166,95.1571415 L161.69891,95.1271995 L161.499452,95.1530048 L161.67084,95.5548584 L161.48087,95.6275467 L161.59671,95.972865 L161.101129,95.8154724 L161.302959,95.9021467 L161.365031,96.2257964 L160.941602,96.3567929 L161.07721,96.8925977 L160.76547,96.8652165 L161.095594,97.2030494 L160.571745,97.3259693 L160.756773,97.7678113 L160.179155,97.4715428 L160.147724,97.6228288 L160.784448,98.0244855 L160.346589,98.1166754 L160.751435,98.4121561 L160.067071,98.5933842 L160.899101,99.0425147 L159.832426,99.1648437 L159.801786,99.3019467 L160.870636,99.3651796 L160.153456,99.6403705 L160.238458,99.9263958 L159.766401,99.4597334 L159.76561,99.4630822 L159.698597,99.3947276 L159.323205,99.7782615 L159.500325,100.753742 L159.2981,100.746453 L159.48115,100.954274 L159.105165,101.009628 L159.702946,101.300381 L158.443534,101.526916 L158.475756,101.545433 L159.005337,101.852141 L157.860579,102.018596 L158.318205,101.66658 L157.702831,101.66658 L157.960802,101.475108 L157.879754,101.428422 L158.035722,101.40045 L157.78981,101.298805 L158.053711,100.822884 L157.800287,100.61329 L157.637597,100.779547 L157.784472,101.028539 L157.527687,101.147125 L157.575921,101.497762 L157.271496,101.450682 L157.237495,101.616151 L157.183133,101.776498 L157.335346,102.20593 L156.958767,102.034552 L157.184714,102.370021 L156.693087,102.241388 L156.919429,102.804968 L156.349916,102.749812 L156.878708,103.369336 L155.99192,103.325605 L156.503118,103.72864 L155.749566,103.709533 L155.490013,103.9209 L155.327916,103.549382 L155.10019,103.795813 L155.248252,104.186635 L155.004118,104.192939 L155.048398,104.506739 L154.743775,104.460053 L154.691588,104.711015 L154.571004,104.700969 L154.817114,105.155024 L152.481538,104.859346 L153.582214,104.601096 L153.56383,104.553819 L152.577412,104.349741 L153.266323,103.922476 L153.270277,103.892337 L152.593029,103.713472 L152.988979,103.425083 L152.340395,103.312998 L153.144553,102.891642 L153.13368,102.802998 L152.593424,103.056914 L152.773707,102.628074 L152.250451,102.505154 L152.59204,102.154517 L152.023911,102.178746 L152.391989,101.63191 L151.868338,101.366765 L152.187391,101.178446 L151.512516,101.054935 L151.818918,100.902861 L151.690427,100.883556 L151.805871,100.23665 L151.658996,100.083788 L151.495317,100.250834 L151.642984,100.640277 L151.367815,100.647762 L151.276685,101.100045 L151.09225,100.924135 L151.118541,101.16702 L150.89556,101.148898 L150.900699,101.262362 L149.979318,101.285804 L150.036249,101.094726 L148.995272,100.940879 L150.395037,100.691494 L150.394048,100.680265 L149.34892,100.456291 L150.069855,100.038284 L150.083099,100.013858 L149.443213,99.8448431 L149.85221,99.5469987 L149.242766,99.282839 L149.436096,99.206802 L149.624089,98.7590503 L149.100437,98.6359334 L149.483737,98.2435351 L149.045878,98.1720288 L149.199475,97.7439759 L148.720301,97.4971511 L149.041134,97.3078465 L148.388793,97.4114617 L148.843257,97.0608247 L148.522622,97.0115779 L148.621461,96.7346141 L148.723859,96.5171403 L148.50147,96.2240236 L148.345897,96.3820072 L148.494156,96.7710567 L148.210289,96.7791332 L148.093066,97.1547875 L147.979796,97.0878119 L147.936306,97.2954363 L147.679719,97.2743587 L147.702847,96.9109175 L147.623974,96.9109175 L147.520192,96.7137334 L147.761953,96.3755066 L147.281791,96.2244175 L147.453772,95.9598639 L146.958784,95.9606518 L147.08688,95.5125062 L146.754384,95.545797 L146.962144,94.936713 L146.534565,95.1675818 L146.935062,94.5202823 L146.688952,94.5214642 L146.784826,94.2007692 L146.694092,94.2125885 L146.670766,94.0299814 L146.59802,94.1001088 L146.511239,93.6454626 L146.326804,93.6365982 L146.425644,93.2148489 L146.355863,93.0988235 L146.231523,93.365544 L146.303874,93.6159146 L146.364759,93.8944543 L146.134463,93.9521715 L146.442249,94.3398421 L145.999844,94.2255896 L146.216697,94.4341989 L145.913853,94.6885093 L146.016053,95.1545807 L145.713407,95.2355424 L145.968808,95.6618224 L145.630184,95.7914399 L145.76421,96.3132587 L145.861864,96.3759006 L145.464529,96.6570012 L145.734558,96.9774992 L145.322398,97.1553785 L145.343549,97.2188083 L145.791688,97.6429215 L145.124126,97.8763512 L145.121951,97.9206733 L145.997471,98.1749836 L145.358178,98.3294215 L145.39712,98.5437434 L144.720466,98.5157713 L144.723628,98.398367 L144.575567,98.4178687 L144.586439,98.2533845 L144.478902,98.4208235 L144.408331,97.8477881 L144.230222,97.8399086 L144.328468,97.4171743 L144.248408,97.284405 L144.181395,97.3984605 L144.217175,97.7242772 L142.353063,97.5146829 L143.74749,96.7755874 L143.747095,96.6621228 L142.547974,96.3508832 L143.331178,95.789667 L142.514171,95.6208491 L143.599231,94.9491232 L143.503356,94.4958559 L142.512787,94.9942332 L142.812469,94.2925652 L141.863017,94.0739096 L142.549753,93.3836668 L141.842458,93.4445358 L142.091336,92.4794961 L141.27848,92.2326713 L141.373761,91.7463102 L141.939914,91.5067739 L141.83633,91.38346 L140.874029,91.6836683 L141.044033,91.1870639 L141.16521,91.1575158 L140.710153,90.986531 L141.047394,90.2113868 L140.617047,90.1564274 L140.786062,89.6377605 L140.569801,89.4557444 Z M147.183308,120.136542 C148.051711,120.136542 148.789449,120.470238 149.375765,121.128372 C149.939149,121.756957 150.224796,122.518312 150.224796,123.390768 C150.224796,124.263027 149.940731,125.024185 149.380114,125.653165 C148.793402,126.308738 148.054479,126.640858 147.183308,126.640858 C146.309171,126.640858 145.570248,126.30992 144.986897,125.657696 C144.42628,125.031474 144.142017,124.26874 144.142017,123.390768 C144.142017,122.521464 144.429047,121.760306 144.995397,121.128175 C145.581713,120.470238 146.317869,120.136542 147.183308,120.136542 Z M186.623909,120.144973 C187.522755,120.144973 188.229457,120.453651 188.724445,121.062932 C188.786319,121.143894 188.815575,121.212643 188.815575,121.275285 C188.815575,121.324531 188.796598,121.406675 188.571244,121.76007 C188.339169,122.12489 188.281052,122.165075 188.211666,122.165075 C188.149991,122.165075 188.075466,122.125678 187.877984,121.924751 C187.715295,121.759873 187.561303,121.63518 187.42016,121.554218 C187.189469,121.423222 186.930114,121.35664 186.650003,121.35664 C186.108758,121.35664 185.700353,121.555794 185.40087,121.96533 C185.132817,122.333302 184.996814,122.805677 184.996814,123.369257 C184.996814,123.933231 185.131631,124.410531 185.397509,124.787367 C185.696795,125.207541 186.103816,125.412013 186.641305,125.412013 C186.905206,125.412013 187.163573,125.345038 187.409683,125.213056 C187.574152,125.125791 187.743958,124.999325 187.91495,124.837205 C188.167979,124.599442 188.18577,124.599442 188.229062,124.599442 L188.243736,124.599728 C188.29111,124.602592 188.330777,124.634093 188.592791,124.980612 C188.871519,125.348386 188.871519,125.375177 188.871519,125.415953 C188.871519,125.477019 188.838704,125.542025 188.765365,125.626532 C188.18755,126.293924 187.461277,126.632151 186.606711,126.632151 C185.716761,126.632151 184.994244,126.303183 184.459325,125.654504 C183.963546,125.054679 183.711901,124.295884 183.711901,123.399396 C183.711901,122.502711 183.967895,121.740962 184.47257,121.13503 C185.012826,120.478275 185.736924,120.144973 186.623909,120.144973 Z M193.920021,120.278215 C194.038628,120.278215 194.19855,120.279791 194.400381,120.282548 C194.632653,120.285306 194.790401,120.286882 194.873624,120.286882 C195.019906,120.286882 195.071698,120.381436 195.071698,120.462792 C195.071698,120.897148 195.062605,121.540508 195.043825,122.429708 C195.025046,123.30236 195.015557,123.962661 195.015557,124.392684 C195.015557,124.851861 195.114792,125.162903 195.310297,125.317144 C195.482475,125.457399 195.81418,125.52792 196.297703,125.52792 C196.739318,125.52792 197.053627,125.469612 197.231933,125.354769 C197.448392,125.216878 197.557906,124.946809 197.557906,124.551652 C197.557906,124.0974 197.550394,123.411491 197.536161,122.51323 C197.521928,121.613393 197.514614,120.926499 197.514614,120.471262 C197.514614,120.424773 197.534975,120.313672 197.72534,120.287867 C197.792946,120.277821 197.884274,120.277821 198.005253,120.287276 C198.086895,120.294171 198.145605,120.299095 198.187316,120.305793 L198.187316,120.305793 C198.237328,120.30402 198.313237,120.299686 198.414646,120.291413 C198.522974,120.282548 198.604023,120.278215 198.657594,120.278215 C198.783318,120.278215 198.864366,120.354055 198.864366,120.471262 C198.864366,120.802003 198.850726,121.306093 198.823446,121.969349 C198.796167,122.628665 198.782329,123.129997 198.782329,123.459556 L198.782516,123.531132 C198.783009,123.635166 198.784464,123.773593 198.786678,123.946311 C198.789446,124.163194 198.791027,124.325117 198.791027,124.431293 C198.791027,125.051409 198.732712,125.473355 198.612721,125.720968 C198.427891,126.101941 198.067918,126.362752 197.542882,126.495718 C197.231933,126.574907 196.789726,126.615092 196.228515,126.615092 C195.183584,126.615092 194.512069,126.441744 194.176015,126.085197 C193.91409,125.805672 193.786785,125.277353 193.786785,124.469903 C193.786785,124.375152 193.788169,124.214805 193.791134,123.989254 C193.793902,123.764689 193.795285,123.588189 193.795285,123.459556 C193.795285,123.123299 193.78125,122.512639 193.752389,121.592316 C193.752389,121.357113 193.739342,121.004506 193.713644,120.541192 C193.710679,120.505341 193.709097,120.479732 193.709097,120.467125 C193.709097,120.380057 193.76425,120.278215 193.920021,120.278215 Z M150.932763,120.278215 C151.051172,120.278215 151.211292,120.279791 151.413123,120.282548 C151.645395,120.285306 151.803143,120.286882 151.886366,120.286882 C152.032648,120.286882 152.08444,120.381436 152.08444,120.462792 C152.08444,120.897148 152.074952,121.559025 152.05637,122.429708 C152.037788,123.300785 152.028299,123.961085 152.028299,124.392684 C152.028299,124.851861 152.127534,125.162903 152.323039,125.316947 C152.495217,125.457399 152.826725,125.52792 153.310247,125.52792 C153.751862,125.52792 154.066369,125.469612 154.244675,125.354769 C154.460936,125.216878 154.570648,124.946809 154.570648,124.551652 C154.570648,124.0974 154.563334,123.411491 154.548903,122.51323 C154.53467,121.61753 154.527356,120.930636 154.527356,120.471262 C154.527356,120.424773 154.547915,120.313672 154.738082,120.287867 C154.805293,120.278018 154.897214,120.277624 155.017798,120.287276 C155.099637,120.294171 155.158347,120.299095 155.200058,120.30599 L155.200058,120.30599 C155.25007,120.30402 155.325781,120.299686 155.426993,120.291413 C155.535716,120.282548 155.616765,120.278215 155.670336,120.278215 C155.795862,120.278215 155.877108,120.354055 155.877108,120.471262 C155.877108,120.803579 155.86327,121.307669 155.835793,121.969349 C155.808711,122.630043 155.795071,123.131376 155.795071,123.459556 L155.795805,123.61569 C155.796526,123.706594 155.79776,123.816772 155.79942,123.946311 C155.801081,124.076441 155.802314,124.186785 155.803035,124.277174 L155.803769,124.431293 C155.803769,125.051015 155.745454,125.472961 155.62566,125.720771 C155.440435,126.101941 155.080462,126.362752 154.555624,126.495718 C154.244675,126.574907 153.80227,126.615092 153.24106,126.615092 C152.196129,126.615092 151.524613,126.441744 151.188757,126.085197 C150.926635,125.805672 150.799527,125.277353 150.799527,124.469903 C150.799527,124.375152 150.800911,124.214805 150.803678,123.989451 C150.806644,123.764689 150.808027,123.588189 150.808027,123.459556 C150.808027,123.124087 150.793597,122.495895 150.765131,121.592316 C150.764933,121.357113 150.751887,121.004506 150.726386,120.541192 C150.723421,120.505341 150.721839,120.479732 150.721839,120.467125 C150.721839,120.375723 150.777189,120.278215 150.932763,120.278215 Z M138.4288,120.226683 C138.518546,120.226683 138.576071,120.316706 138.640119,120.461688 C139.332193,121.977701 139.936497,123.353065 140.435834,124.548186 C140.492766,124.68391 140.532499,124.771963 140.560174,124.829286 C140.582117,124.78457 140.611373,124.719761 140.650118,124.625995 C141.041127,123.697595 141.587907,122.307063 142.275632,120.492418 C142.297772,120.434898 142.364983,120.261156 142.510672,120.261156 C142.609512,120.261156 142.758957,120.266868 142.958613,120.27849 C143.153129,120.289719 143.29862,120.295628 143.395088,120.295628 C143.520614,120.295628 143.60186,120.37462 143.60186,120.497146 C143.60186,120.826903 143.591185,121.313658 143.56944,121.985975 C143.547893,122.639578 143.537021,123.138152 143.537021,123.468105 L143.537595,123.592458 C143.540274,123.90055 143.552317,124.333765 143.573592,124.883261 C143.598104,125.509679 143.61036,125.986782 143.61036,126.301568 C143.61036,126.426851 143.529312,126.507616 143.403786,126.507616 C143.350017,126.507616 143.268969,126.503282 143.160443,126.494221 C143.059034,126.485947 142.983322,126.481811 142.93331,126.481811 C142.883297,126.481811 142.806993,126.485947 142.7042,126.494221 C142.594093,126.503282 142.512254,126.507616 142.458683,126.507616 C142.358855,126.507616 142.252108,126.444383 142.252108,126.267292 C142.252108,125.900896 142.263771,125.348741 142.286702,124.625995 C142.305284,124.035822 142.316551,123.560689 142.319912,123.209067 C142.139827,123.620376 141.823936,124.386262 141.376786,125.495693 C141.289214,125.752368 141.159141,126.082912 140.992103,126.473537 C140.946044,126.560015 140.838111,126.589366 140.590617,126.589366 C140.205736,126.589366 140.100966,126.54268 140.056686,126.467825 C139.953102,126.223758 139.813541,125.898926 139.632467,125.480722 C139.411264,124.955161 139.07521,124.179032 138.632014,123.170458 C138.633991,123.53055 138.640317,124.010411 138.650794,124.601569 C138.660941,125.188372 138.666903,125.648502 138.669052,125.996326 L138.669968,126.267292 C138.669968,126.444383 138.563222,126.507616 138.463394,126.507616 C138.41259,126.507616 138.3351,126.503282 138.230528,126.494221 C138.133666,126.485947 138.06171,126.481811 138.014663,126.481811 C137.964848,126.481811 137.890718,126.485947 137.792274,126.494221 C137.686318,126.503282 137.606654,126.507616 137.553083,126.507616 C137.400474,126.507616 137.34631,126.410501 137.34631,126.327373 C137.34631,126.007466 137.361532,125.52465 137.391777,124.892913 C137.421626,124.260584 137.436847,123.781315 137.436847,123.468105 L137.436135,123.338372 C137.432813,123.016725 137.417895,122.562999 137.391777,121.986959 C137.361532,121.330008 137.34631,120.828872 137.34631,120.497146 C137.34631,120.391955 137.415498,120.320055 137.531536,120.30469 C137.924917,120.253079 138.22697,120.226683 138.4288,120.226683 Z M190.321671,120.286823 C190.471117,120.286823 190.523897,120.383938 190.523897,120.467066 C190.523897,120.772593 190.512432,121.235316 190.489698,121.842233 C190.46657,122.445407 190.455105,122.907145 190.455105,123.214642 L190.455105,123.893854 C190.452139,124.198199 190.450558,124.42434 190.450558,124.573065 C190.450558,124.939353 190.459524,125.15623 190.469865,125.28456 L190.478889,125.374291 C190.481891,125.39792 190.484828,125.41574 190.487524,125.429171 C191.512292,125.428186 192.298065,125.402381 192.823298,125.352149 C192.84702,125.349588 192.911858,125.339739 193.015442,125.323192 C193.105386,125.304872 193.17655,125.295811 193.229726,125.295811 C193.344973,125.295811 193.4193,125.366529 193.4193,125.476054 C193.4193,125.889333 193.39716,126.177131 193.351299,126.355995 C193.321054,126.48187 193.230912,126.554952 193.104595,126.554952 C192.889718,126.554952 192.565525,126.542542 192.141108,126.518115 C191.72025,126.494083 191.40001,126.48187 191.188889,126.48187 C190.988047,126.48187 190.688168,126.486007 190.289252,126.494674 C189.888557,126.503341 189.587097,126.507478 189.385464,126.507478 C189.25974,126.507478 189.178692,126.426713 189.178692,126.30143 C189.178692,125.983886 189.189762,125.506784 189.211111,124.883517 C189.232461,124.255325 189.243333,123.77901 189.243333,123.468164 C189.243333,123.133089 189.228112,122.632151 189.198064,121.978351 C189.167622,121.302882 189.152796,120.812779 189.152796,120.480067 C189.152796,120.362663 189.233844,120.286823 189.359568,120.286823 C189.412941,120.286823 189.49478,120.291157 189.604888,120.300218 C189.707681,120.308492 189.785566,120.312628 189.838544,120.312628 C189.888557,120.312628 189.966442,120.308492 190.072003,120.300218 C190.185273,120.291157 190.268298,120.286823 190.321671,120.286823 Z M170.452449,120.170778 C170.539033,120.170778 170.592604,120.2543 170.651116,120.389237 C170.720699,120.551357 171.065254,121.424798 171.674896,122.985329 C172.671327,125.521885 172.907324,126.133204 172.963218,126.293973 L172.972403,126.32129 C172.978233,126.339504 172.979899,126.347347 172.980375,126.352379 C172.980565,126.392615 172.965937,126.507655 172.778142,126.507655 C172.721605,126.507655 172.638976,126.503322 172.53045,126.49426 C172.429041,126.485987 172.351748,126.48185 172.299166,126.48185 C172.246385,126.48185 172.166918,126.485987 172.06116,126.49426 C171.948286,126.503322 171.863679,126.507655 171.807143,126.507655 C171.686559,126.507655 171.576847,126.386705 171.403878,125.78491 C171.237432,125.208132 171.117639,125.196312 171.112499,125.195918 C171.021344,125.191092 170.802755,125.188378 170.445739,125.187774 L169.453061,125.187747 C169.074127,125.188289 168.854698,125.190994 168.800051,125.195721 C168.799853,125.196706 168.702793,125.242013 168.556906,125.785304 C168.405962,126.344895 168.319798,126.485545 168.219392,126.505101 L168.191595,126.507655 L167.220794,126.507655 C167.084198,126.507655 167.035767,126.422163 167.035767,126.348884 C167.035767,126.3243 167.040827,126.286352 167.073316,126.196514 L167.103175,126.118803 L168.159176,123.240822 C168.246945,123.012317 168.512428,122.354774 168.971636,121.229781 C169.052487,121.045401 169.162001,120.767846 169.2984,120.402435 C169.316981,120.343733 169.370552,120.175112 169.503195,120.175112 C169.563487,120.175112 169.646908,120.1824 169.758201,120.197568 C169.85961,120.21116 169.936507,120.218055 169.98652,120.218055 C170.032777,120.218055 170.107104,120.210569 170.20713,120.195795 C170.317237,120.178854 170.397692,120.170778 170.452449,120.170778 Z M157.668079,120.235272 C157.732522,120.235272 157.790047,120.279791 157.880781,120.398968 C158.544785,121.308063 159.56639,122.667274 160.91792,124.440355 L160.91792,124.440355 L160.929188,124.453947 C160.935712,124.311131 160.939072,124.115326 160.939072,123.868107 C160.939072,123.500135 160.925432,122.937146 160.898153,122.194702 C160.870873,121.451864 160.857035,120.88789 160.857035,120.518736 C160.857035,120.29555 160.998771,120.278215 161.042063,120.278215 C161.095634,120.278215 161.176682,120.282548 161.285208,120.291413 C161.386815,120.299686 161.462526,120.30402 161.512539,120.30402 C161.565319,120.30402 161.644786,120.299686 161.750544,120.291413 C161.863616,120.282548 161.948025,120.278215 162.004364,120.278215 C162.119413,120.278215 162.19374,120.354055 162.19374,120.471262 C162.19374,120.803382 162.182077,121.306487 162.159146,121.966788 L162.151085,122.206774 C162.133528,122.749396 162.12475,123.170157 162.12475,123.459556 C162.12475,123.771584 162.127518,124.239428 162.133448,124.862301 C162.137748,125.330195 162.140379,125.710663 162.141426,126.00354 L162.141948,126.267213 C162.141948,126.444501 162.035202,126.507537 161.935176,126.507537 C161.889908,126.507537 161.821906,126.5034 161.731171,126.494142 C161.649332,126.486066 161.587854,126.481732 161.546935,126.481732 C161.502852,126.481732 161.435444,126.486066 161.344512,126.494339 C161.245672,126.5034 161.172136,126.507537 161.1241,126.507537 C161.037714,126.507537 160.9537,126.450017 160.859803,126.326703 C160.240475,125.495024 159.289837,124.239625 158.033785,122.594783 C157.941864,122.476197 157.875444,122.391886 157.827408,122.332002 C157.827804,122.772662 157.835118,123.426462 157.848955,124.277052 C157.863188,125.153842 157.870502,125.823401 157.870502,126.267213 C157.870502,126.490202 157.728766,126.507537 157.685277,126.507537 C157.634474,126.507537 157.556983,126.5034 157.452411,126.494339 C157.355549,126.486066 157.283791,126.481732 157.236546,126.481732 C157.186533,126.481732 157.112404,126.486066 157.013959,126.494339 C156.908201,126.5034 156.828537,126.507537 156.774966,126.507537 C156.622357,126.507537 156.568193,126.408059 156.568193,126.323157 C156.568193,126.006796 156.583019,125.539149 156.613462,124.893031 C156.643509,124.265824 156.65873,123.786752 156.65873,123.468027 L156.658345,123.356234 C156.65603,122.995256 156.643292,122.404336 156.619985,121.596255 C156.614055,121.361447 156.60002,121.009825 156.576891,120.540602 L156.576891,120.540602 L156.57274,120.487612 C156.569973,120.443487 156.583019,120.40468 156.610497,120.37395 C156.645288,120.335735 156.697673,120.315642 156.771012,120.312687 C156.956435,120.309733 157.102322,120.304217 157.207092,120.295944 C157.24643,120.292989 157.319176,120.28176 157.426318,120.262653 C157.526936,120.244333 157.606008,120.235272 157.668079,120.235272 Z M176.462837,120.235272 C176.527281,120.235272 176.584805,120.279791 176.67554,120.398968 C177.336578,121.303926 178.357985,122.663137 179.712876,124.440355 C179.716435,124.444885 179.72019,124.449613 179.723946,124.453947 C179.730667,124.311131 179.73383,124.115326 179.73383,123.868107 L179.733191,123.721007 C179.730207,123.356584 179.71678,122.844341 179.692911,122.194702 C179.665829,121.451864 179.651794,120.88789 179.651794,120.518736 C179.651794,120.29555 179.793529,120.278215 179.837019,120.278215 C179.890392,120.278215 179.97144,120.282548 180.079966,120.291413 C180.181573,120.299686 180.257284,120.30402 180.307297,120.30402 C180.360077,120.30402 180.439544,120.299686 180.545302,120.291413 C180.658375,120.282548 180.742783,120.278215 180.799122,120.278215 C180.914171,120.278215 180.988498,120.354055 180.988498,120.471262 C180.988498,120.802397 180.976835,121.305699 180.954102,121.966788 L180.946032,122.205869 C180.928438,122.746681 180.919508,123.167744 180.919508,123.459556 C180.919508,123.771584 180.922276,124.239428 180.928206,124.862301 C180.932654,125.330195 180.935212,125.710663 180.936212,126.00354 L180.936707,126.267213 C180.936707,126.444501 180.82996,126.507537 180.730132,126.507537 C180.684864,126.507537 180.616664,126.5034 180.526127,126.494142 C180.444091,126.486066 180.38281,126.481732 180.341891,126.481732 C180.297808,126.481732 180.230202,126.486066 180.139467,126.494339 C180.04043,126.5034 179.966894,126.507537 179.919055,126.507537 C179.832472,126.507537 179.748656,126.450017 179.654759,126.326703 C179.030093,125.488129 178.079258,124.23273 176.828741,122.594783 C176.73682,122.476394 176.670202,122.391886 176.622166,122.332199 C176.622562,122.770889 176.629876,123.425083 176.643713,124.277052 C176.657946,125.153842 176.66526,125.823401 176.66526,126.267213 C176.66526,126.490202 176.523525,126.507537 176.480035,126.507537 C176.429429,126.507537 176.351939,126.5034 176.247367,126.494339 C176.150307,126.486066 176.078352,126.481732 176.031502,126.481732 C175.981687,126.481732 175.907359,126.486066 175.808718,126.494339 C175.703157,126.5034 175.623295,126.507537 175.569724,126.507537 C175.416918,126.507537 175.362952,126.408059 175.362952,126.323157 C175.362952,126.006205 175.377778,125.538361 175.408418,124.893031 C175.438465,124.263854 175.453686,123.784585 175.453686,123.468027 C175.453686,123.12389 175.440639,122.494122 175.414941,121.596255 C175.408813,121.361644 175.394778,121.009825 175.371847,120.540602 L175.371847,120.540602 L175.367498,120.487415 C175.364731,120.443684 175.377778,120.404877 175.405255,120.374147 C175.440046,120.335735 175.492234,120.315642 175.565573,120.312687 C175.751193,120.309733 175.897278,120.304217 176.00185,120.295944 C176.041386,120.292989 176.113934,120.28176 176.221076,120.262653 C176.320311,120.24453 176.401952,120.235272 176.462837,120.235272 Z M166.975732,120.243821 C167.007558,120.243821 167.067455,120.273763 167.084455,120.30922 C167.097205,120.335814 167.100282,120.371936 167.101023,120.388335 L167.101214,120.407663 C167.100862,120.418461 167.100072,120.433519 167.100072,120.433519 C167.098886,120.442384 167.09681,120.480279 167.095846,120.637124 L167.095327,120.836949 C167.095327,120.871619 167.099479,120.926381 167.107583,121.000251 C167.116874,121.083774 167.121223,121.147007 167.121223,121.189359 C167.121223,121.344585 167.030093,121.399741 166.944696,121.399741 C166.866811,121.399741 166.398311,121.383982 165.513105,121.351676 C165.492349,122.072501 165.480522,122.677799 165.47789,123.155298 L165.4779,123.483459 C165.480578,123.808308 165.492621,124.260806 165.513896,124.831847 C165.538211,125.488405 165.550664,125.988752 165.550664,126.318902 C165.550664,126.410107 165.491756,126.507616 165.326694,126.507616 C165.273123,126.507616 165.191284,126.503282 165.081375,126.494221 C164.978384,126.485947 164.900498,126.481811 164.847718,126.481811 C164.797705,126.481811 164.721204,126.485947 164.61841,126.494221 C164.508501,126.503282 164.426662,126.507616 164.373091,126.507616 C164.247565,126.507616 164.166319,126.426851 164.166319,126.301568 C164.166319,125.976539 164.180156,125.479737 164.207436,124.824952 C164.234518,124.176077 164.248356,123.680457 164.248356,123.35208 C164.248356,122.863355 164.23353,122.191432 164.204471,121.35404 C163.512792,121.395604 162.996455,121.416879 162.668901,121.416879 C162.580143,121.416879 162.518072,121.358571 162.518072,121.275245 C162.518072,121.234797 162.524222,121.185069 162.536756,121.124835 L162.560375,121.02645 L162.616318,120.804052 C162.619481,120.71659 162.639645,120.575941 162.675227,120.392546 C162.701024,120.323108 162.741387,120.281371 162.791897,120.264843 L162.845626,120.256625 L162.905918,120.26155 C163.913685,120.32104 164.589747,120.351376 164.912359,120.351376 C165.195435,120.351376 165.668086,120.329707 166.316868,120.287158 C166.735492,120.26021 166.842684,120.250973 166.869591,120.247816 L166.875904,120.246973 L166.879857,120.243821 L166.975732,120.243821 Z M174.439178,120.278313 C174.594752,120.278313 174.650299,120.373458 174.650299,120.462693 C174.650299,120.785161 174.638636,121.27231 174.615903,121.910942 C174.592973,122.545241 174.581309,123.030223 174.581309,123.3521 L174.581884,123.483156 C174.584565,123.807358 174.59663,124.259964 174.618078,124.831867 C174.642392,125.48744 174.654648,125.987787 174.654648,126.318922 C174.654648,126.40993 174.59574,126.507636 174.430678,126.507636 C174.377107,126.507636 174.295268,126.503302 174.185161,126.494241 C174.082566,126.485967 174.006064,126.48183 173.956051,126.48183 C173.903073,126.48183 173.825188,126.485967 173.722395,126.494241 C173.612485,126.503302 173.530646,126.507636 173.477075,126.507636 C173.351351,126.507636 173.270303,126.430023 173.270303,126.310255 C173.270303,125.982074 173.285524,125.4835 173.315967,124.828912 C173.345816,124.172748 173.361037,123.675946 173.361037,123.3521 C173.361037,123.039481 173.345816,122.558833 173.315967,121.922761 C173.285524,121.287872 173.270303,120.803875 173.270303,120.484165 C173.270303,120.359078 173.348188,120.278313 173.468377,120.278313 C173.524518,120.278313 173.610706,120.282647 173.726348,120.291314 C173.835269,120.299785 173.917504,120.303922 173.973249,120.303922 C174.023262,120.303922 174.098182,120.299785 174.19801,120.291511 C174.30535,120.282647 174.385805,120.278313 174.439178,120.278313 Z M200.013628,120.278631 C200.249473,120.279251 200.551236,120.280618 200.91906,120.282588 C201.433816,120.285346 201.820476,120.286922 202.07904,120.286922 C202.699159,120.286922 203.203043,120.40472 203.577051,120.637165 C204.04298,120.927524 204.279207,121.38217 204.279207,121.989087 C204.279207,122.202227 204.217333,122.42561 204.09497,122.652933 C203.972804,122.879666 203.820987,123.054196 203.644064,123.1716 C203.632599,123.179086 203.62232,123.186177 203.613226,123.192284 C203.620343,123.196421 203.62825,123.200951 203.636948,123.205679 C203.871197,123.334509 204.061167,123.52598 204.201914,123.774381 C204.342069,124.021994 204.413035,124.283395 204.413035,124.551692 C204.413035,125.071935 204.252915,125.525793 203.936827,125.900659 C203.599191,126.297588 203.164495,126.498909 202.644402,126.498909 C202.45977,126.498909 202.182229,126.494575 201.811581,126.486105 C201.44291,126.477635 201.166752,126.473104 200.983306,126.473104 L200.894596,126.473791 C200.765424,126.475625 200.592732,126.481141 200.377025,126.490439 C200.103042,126.501864 199.898444,126.507577 199.762243,126.507577 C199.63652,126.507577 199.555471,126.429964 199.555471,126.310196 C199.555471,125.992258 199.57089,125.512398 199.601135,124.884403 C199.631578,124.244195 199.646206,123.780684 199.646206,123.468066 C199.646206,123.138113 199.631578,122.649585 199.601135,121.974313 C199.57089,121.312042 199.555471,120.806376 199.555471,120.471301 C199.555471,120.354094 199.63652,120.278254 199.762243,120.278254 L199.762243,120.278254 Z M201.820279,123.777336 C201.113774,123.777336 200.897513,123.815157 200.831884,123.836826 L200.831884,123.836826 L200.831884,124.499884 C200.831884,124.602712 200.834849,124.759316 200.840582,124.970289 C200.845326,125.148563 200.848094,125.289802 200.848884,125.393615 C200.879327,125.400115 200.935072,125.408783 201.034109,125.416662 C201.213997,125.430648 201.486992,125.43774 201.846175,125.43774 C202.280673,125.43774 202.593203,125.383174 202.775068,125.275422 C203.006945,125.138319 203.119424,124.887555 203.119424,124.508552 C203.119424,124.200858 202.985991,123.998749 202.71181,123.8908 C202.525004,123.815354 202.22552,123.777336 201.820279,123.777336 Z M147.174807,121.348012 C146.651947,121.348012 146.228123,121.555637 145.879418,121.982508 C145.55048,122.381406 145.383639,122.854963 145.383639,123.390768 C145.383639,123.923618 145.55048,124.395993 145.879022,124.794498 C146.228123,125.221566 146.651749,125.429191 147.174807,125.429191 C147.706366,125.429191 148.135922,125.221566 148.487593,124.794498 C148.819298,124.395796 148.987325,123.919285 148.987325,123.377964 C148.987325,122.842553 148.817915,122.370375 148.484035,121.975022 C148.131969,121.553076 147.703599,121.348012 147.174807,121.348012 Z M169.960624,121.850487 C169.281992,123.579442 169.165164,123.932837 169.157257,123.986615 C169.157652,124.001192 169.221898,124.039998 169.394472,124.05359 C169.408704,124.05492 169.452181,124.056471 169.610216,124.057164 L170.25398,124.05753 C170.68235,124.05753 170.760828,123.993509 170.772096,123.981099 C170.771424,123.972786 170.769044,123.958595 170.763009,123.934418 L170.74549,123.87153 C170.706247,123.740468 170.611976,123.468013 170.390576,122.902004 C170.208513,122.434357 170.064405,122.082538 169.960624,121.850487 Z M201.483829,121.240733 C201.050517,121.240733 200.904827,121.270478 200.857582,121.287025 C200.856594,121.380988 200.852245,121.512181 200.844535,121.67962 C200.836035,121.866955 200.831884,122.008786 200.831884,122.105112 C200.831884,122.170709 200.833465,122.271763 200.836035,122.408472 C200.838605,122.524695 200.839989,122.616688 200.840384,122.684057 C200.894548,122.704544 201.082343,122.746108 201.716695,122.746108 C203.002794,122.746108 203.002794,122.247534 203.002794,122.083641 C203.002794,121.720987 202.845639,121.483815 202.522236,121.358531 C202.317243,121.280524 201.967549,121.240733 201.483829,121.240733 Z M179.910259,110.756568 C180.778662,110.756568 181.516202,111.090264 182.102716,111.748595 C182.666101,112.377378 182.951747,113.138536 182.951747,114.010992 C182.951747,114.883251 182.667682,115.644409 182.107065,116.273389 C181.520551,116.928765 180.78143,117.261082 179.910259,117.261082 C179.036123,117.261082 178.297199,116.930143 177.713651,116.277919 C177.153033,115.651303 176.868969,114.888766 176.868969,114.010992 C176.868969,113.141491 177.155998,112.380136 177.722348,111.748398 C178.308664,111.090264 179.04482,110.756568 179.910259,110.756568 Z M145.440234,110.756489 C146.30844,110.756489 147.046178,111.090186 147.632691,111.748516 C148.196076,112.377299 148.481722,113.138654 148.481722,114.010913 C148.481722,114.883172 148.19746,115.64433 147.63704,116.273507 C147.050329,116.928883 146.311208,117.261003 145.440234,117.261003 C144.566098,117.261003 143.827174,116.930262 143.243626,116.27784 C142.683009,115.651618 142.398746,114.888688 142.398746,114.010913 C142.398746,113.141412 142.685974,112.380254 143.252324,111.748319 C143.83864,111.090186 144.574796,110.756489 145.440234,110.756489 Z M156.416791,110.756568 C157.284997,110.756568 158.022735,111.090264 158.609248,111.748595 C159.172633,112.377181 159.458279,113.138536 159.458279,114.010992 C159.458279,114.883251 159.174214,115.644409 158.613597,116.273389 C158.026886,116.928765 157.287962,117.261082 156.416791,117.261082 C155.542655,117.261082 154.803731,116.930143 154.220381,116.277919 C153.659566,115.6515 153.375303,114.888766 153.375303,114.010992 C153.375303,113.141491 153.662531,112.380333 154.228881,111.748398 C154.815197,111.090264 155.551353,110.756568 156.416791,110.756568 Z M140.05546,110.765058 C140.954109,110.765058 141.660811,111.073934 142.155799,111.683215 C142.217672,111.764177 142.246929,111.832925 142.246929,111.895567 C142.246929,111.944814 142.228149,112.027155 142.002796,112.380549 C141.757476,112.765659 141.706277,112.785161 141.643415,112.785161 C141.581739,112.785161 141.507214,112.745961 141.309536,112.545231 C141.147241,112.380549 140.993249,112.25566 140.851711,112.174304 C140.62102,112.043505 140.361863,111.976923 140.081356,111.976923 C139.540507,111.976923 139.131905,112.17588 138.832421,112.58581 C138.564368,112.953388 138.428365,113.425566 138.428365,113.98954 C138.428365,114.553514 138.563182,115.030814 138.82906,115.40765 C139.128346,115.827823 139.53517,116.032296 140.072659,116.032296 C140.33656,116.032296 140.595322,115.96532 140.841234,115.833142 C141.005901,115.74568 141.175707,115.619214 141.346501,115.457291 C141.599926,115.219527 141.616333,115.219527 141.660613,115.219527 C141.716952,115.219527 141.735929,115.219527 142.024343,115.600697 C142.30307,115.968275 142.30307,115.996838 142.30307,116.036039 C142.30307,116.097105 142.270453,116.161914 142.196916,116.246618 C141.619101,116.91401 140.892828,117.252434 140.038262,117.252434 C139.14851,117.252434 138.425795,116.923466 137.890876,116.274787 C137.3949,115.674567 137.143452,114.915773 137.143452,114.019482 C137.143452,113.122994 137.399249,112.361245 137.904121,111.755312 C138.444575,111.098361 139.168475,110.765058 140.05546,110.765058 Z M150.160609,110.907185 C150.309857,110.907185 150.363032,111.004102 150.363032,111.087231 C150.363032,111.391773 150.351172,111.854299 150.328241,112.462398 C150.30531,113.068133 150.293845,113.529674 150.293845,113.83461 L150.293845,113.83461 L150.293845,114.514018 C150.291077,114.818363 150.289496,115.044504 150.289496,115.19323 C150.289496,115.559393 150.298462,115.776303 150.308803,115.904674 L150.317827,115.99444 C150.320829,116.018078 150.323766,116.035904 150.326462,116.049335 C151.351427,116.04835 152.137003,116.022545 152.662236,115.972313 C152.68576,115.96995 152.750401,115.959903 152.854182,115.943159 C152.944719,115.925037 153.015884,115.915975 153.068664,115.915975 C153.183713,115.915975 153.25804,115.986891 153.25804,116.096218 C153.25804,116.509694 153.2359,116.797492 153.190236,116.975963 C153.159991,117.102034 153.06985,117.175117 152.943533,117.175117 C152.72747,117.175117 152.403277,117.162509 151.979848,117.138083 C151.558199,117.114051 151.237959,117.102034 151.027827,117.102034 C150.826985,117.102034 150.526908,117.106171 150.12819,117.114839 C149.727495,117.123309 149.426034,117.12784 149.224204,117.12784 C149.098678,117.12784 149.017432,117.047075 149.017432,116.921791 C149.017432,116.606612 149.028502,116.129509 149.050049,115.503878 C149.071794,114.864655 149.082271,114.401735 149.082271,114.088329 C149.082271,113.756603 149.067049,113.255468 149.037002,112.598713 C149.006955,111.934472 148.991734,111.430579 148.991734,111.100035 C148.991734,110.982828 149.072782,110.907185 149.198308,110.907185 C149.251879,110.907185 149.333718,110.911321 149.443628,110.920383 C149.546421,110.928459 149.624504,110.932793 149.677284,110.932793 C149.727495,110.932793 149.80538,110.928459 149.911336,110.920383 C150.024013,110.911321 150.107038,110.907185 150.160609,110.907185 Z M168.226229,110.790864 C168.312614,110.790864 168.366185,110.874583 168.424698,111.009519 C168.494874,111.172428 168.829742,112.021442 169.448675,113.605415 C170.410602,116.054504 170.66374,116.708947 170.730356,116.895844 L170.745986,116.941449 C170.754147,116.966934 170.754147,116.972085 170.754147,116.977637 C170.754147,117.012898 170.739518,117.127741 170.551724,117.127741 C170.495385,117.127741 170.412755,117.123407 170.30423,117.114543 C170.20282,117.10627 170.125528,117.101936 170.072747,117.101936 C170.019967,117.101936 169.9405,117.10627 169.834742,117.114543 C169.72167,117.123407 169.637261,117.127741 169.580922,117.127741 C169.460141,117.127741 169.350626,117.006791 169.177657,116.404799 C169.011212,115.828217 168.891221,115.816595 168.886081,115.816201 C168.781113,115.810686 168.502782,115.807731 168.057806,115.807731 L168.057806,115.807731 L167.376209,115.807731 C167.323034,115.807731 167.273251,115.807767 167.226652,115.807835 L166.983575,115.808602 C166.705924,115.810065 166.605118,115.813139 166.573633,115.816004 C166.573238,115.816989 166.476375,115.862099 166.330488,116.40539 C166.165821,117.01605 166.07825,117.127741 165.965177,117.127741 L165.965177,117.127741 L164.994376,117.127741 C164.896723,117.127741 164.845524,117.083616 164.823384,117.032005 C164.811128,117.0716 164.774557,117.127741 164.662275,117.127741 C164.605937,117.127741 164.519947,117.123407 164.404502,117.11474 C164.295581,117.10627 164.21473,117.101936 164.161752,117.101936 C164.102844,117.101936 164.015272,117.10627 163.899037,117.11474 C163.776476,117.123407 163.68416,117.127741 163.622287,117.127741 C163.518505,117.127741 163.433108,117.06963 163.382304,116.964439 C163.289198,116.767452 163.024506,116.157186 162.595147,115.149991 C162.584275,115.123989 162.551855,115.046967 162.357537,115.019979 C162.340141,115.018797 162.254546,115.016631 161.978389,115.016631 C161.505343,115.016631 161.34206,115.024904 161.289478,115.031996 C161.292641,115.036132 161.279001,115.06765 161.279001,115.154719 C161.279001,115.351312 161.288489,115.652899 161.306873,116.050813 C161.325653,116.449712 161.335142,116.752678 161.335142,116.951832 C161.335142,117.066675 161.262593,117.140742 161.150114,117.140742 C161.088043,117.140742 160.996518,117.133848 160.87791,117.12065 C160.76464,117.108436 160.679045,117.101936 160.623695,117.101936 C160.57645,117.101936 160.504692,117.10627 160.40783,117.114543 C160.30306,117.123407 160.225767,117.127741 160.174964,117.127741 C160.04924,117.127741 159.968192,117.050325 159.968192,116.93036 C159.968192,116.614196 159.983413,116.130199 160.01346,115.491763 C160.043507,114.860617 160.058926,114.379771 160.058926,114.062622 C160.058926,113.162982 160.025519,112.19026 159.959692,111.171049 L159.959692,111.171049 L159.95554,111.101709 C159.953168,111.05522 159.968389,111.01405 159.99903,110.981941 C160.045089,110.933876 160.120207,110.91142 160.235256,110.91142 C160.479192,110.91142 160.841735,110.904919 161.343839,110.892115 C161.830723,110.879114 162.20394,110.872613 162.453016,110.872613 C163.111287,110.872613 163.648776,111.033158 164.050459,111.349519 C164.498993,111.702914 164.726521,112.209171 164.726521,112.854303 C164.726521,113.291221 164.665241,113.642252 164.544656,113.898138 C164.417154,114.170177 164.179741,114.430594 163.839338,114.671509 C163.819175,114.685495 163.808105,114.695542 163.80257,114.701845 C163.825303,114.767639 163.926119,115.004023 164.30507,115.800442 C164.668997,116.565343 164.780487,116.824972 164.814686,116.925238 C164.821605,116.889781 164.837419,116.836791 164.876757,116.739086 L164.876757,116.739086 L165.932758,113.860907 C166.020527,113.632402 166.286208,112.97486 166.745218,111.849669 C166.825871,111.666077 166.935583,111.388523 167.071981,111.022718 C167.090563,110.964015 167.143937,110.795197 167.276975,110.795197 C167.336278,110.795197 167.422071,110.802683 167.531783,110.817654 C167.632797,110.831246 167.709694,110.838141 167.760102,110.838141 C167.806359,110.838141 167.880686,110.830655 167.980711,110.815881 C168.090819,110.79894 168.171274,110.790864 168.226229,110.790864 Z M171.276553,110.898458 C171.383299,110.898458 171.542826,110.900034 171.754738,110.902595 C171.965662,110.90555 172.1242,110.907126 172.230156,110.907126 L172.312869,110.906833 C172.405337,110.906251 172.52702,110.904811 172.677503,110.902595 C172.879333,110.900034 173.032337,110.898458 173.136118,110.898458 C174.15199,110.898458 174.92274,111.094854 175.427217,111.482131 C175.790353,111.760868 176.075011,112.140265 176.273481,112.609685 C176.458903,113.043647 176.552999,113.504794 176.552999,113.980715 C176.552999,114.804909 176.313609,115.528442 175.841947,116.131026 C175.323831,116.792509 174.650141,117.127781 173.839658,117.127781 C173.689224,117.127781 173.462882,117.122068 173.160433,117.110446 C172.861542,117.09902 172.63777,117.093308 172.489115,117.093308 C172.354694,117.093308 172.152666,117.09902 171.882636,117.110446 C171.608851,117.122068 171.404056,117.127781 171.268053,117.127781 C171.142329,117.127781 171.06128,117.047016 171.06128,116.921732 C171.06128,116.60675 171.073734,116.129844 171.098246,115.503425 C171.122363,114.87543 171.134619,114.399313 171.134619,114.08827 L171.134082,113.956227 C171.131574,113.629318 171.120288,113.171197 171.100223,112.591365 C171.077292,111.926337 171.065629,111.42008 171.065629,111.087172 C171.065629,110.995967 171.120979,110.898458 171.276553,110.898458 Z M172.781087,111.950763 C172.807378,111.946035 172.779506,111.950566 172.779506,111.950566 L172.779506,111.950566 L172.778913,111.950566 C172.491092,111.965515 172.402139,112.010696 172.376725,112.030428 L172.367345,112.039801 C172.36774,112.258654 172.362798,112.589986 172.352519,113.030843 C172.342833,113.46973 172.337496,113.79929 172.337496,114.019521 L172.337936,114.137153 C172.339395,114.348353 172.344447,114.63527 172.352519,114.997562 C172.362798,115.434086 172.36774,115.761675 172.36774,115.980134 C172.367938,115.980134 172.407672,116.05164 172.791762,116.071142 L172.791762,116.071142 L172.791366,116.077051 L172.838595,116.072989 C172.908663,116.068606 173.010423,116.067145 173.158335,116.066658 L173.416625,116.066414 C173.734888,116.066414 173.989696,116.033714 174.173142,115.968906 C174.396519,115.88952 174.601315,115.739022 174.7814,115.521942 C175.124373,115.106496 175.29833,114.587829 175.29833,113.980715 C175.29833,113.389557 175.128327,112.902802 174.793063,112.533648 C174.446137,112.152675 173.974079,111.959627 173.390729,111.959627 L173.390729,111.959627 L173.045613,111.95893 C172.92319,111.957999 172.839035,111.955828 172.781087,111.950763 Z M179.901561,111.968236 C179.3787,111.968236 178.954876,112.17586 178.606369,112.602731 C178.277431,113.00163 178.110788,113.475187 178.110788,114.010992 C178.110788,114.543645 178.277431,115.01602 178.606171,115.414525 C178.954876,115.84179 179.3787,116.049414 179.901561,116.049414 C180.433515,116.049414 180.863071,115.84179 181.214544,115.414525 C181.546447,115.015626 181.714277,114.539311 181.714277,113.998188 C181.714277,113.46258 181.545063,112.990599 181.210986,112.595246 C180.858722,112.173299 180.43055,111.968236 179.901561,111.968236 Z M145.431536,111.968157 C144.908478,111.968157 144.484852,112.175781 144.136146,112.602652 C143.807209,113.001551 143.640565,113.475305 143.640565,114.010913 C143.640565,114.543763 143.807209,115.015941 144.135949,115.414446 C144.484852,115.841711 144.908478,116.049335 145.431536,116.049335 C145.96349,116.049335 146.392849,115.841711 146.74452,115.414446 C147.076225,115.015547 147.244252,114.539232 147.244252,113.998109 C147.244252,113.462501 147.074841,112.99052 146.740962,112.595364 C146.388698,112.173024 145.960525,111.968157 145.431536,111.968157 Z M156.408093,111.968236 C155.885035,111.968236 155.461409,112.17586 155.112703,112.602731 C154.783766,113.00163 154.617122,113.475187 154.617122,114.010992 C154.617122,114.543645 154.783766,115.01602 155.112506,115.414525 C155.461409,115.84179 155.885035,116.049414 156.408093,116.049414 C156.940047,116.049414 157.369406,115.84179 157.721077,115.414525 C158.052782,115.015626 158.220809,114.539311 158.220809,113.998188 C158.220809,113.46258 158.051398,112.990402 157.717518,112.595246 C157.365255,112.173102 156.937082,111.968236 156.408093,111.968236 Z M167.734206,112.47077 C167.140576,113.983433 166.976774,114.443084 166.939802,114.570388 L166.930839,114.606701 C166.931234,114.621475 166.995677,114.660281 167.168251,114.673873 C167.177476,114.674792 167.205239,114.676237 167.325106,114.677098 L168.027759,114.677813 C168.455932,114.677813 168.534608,114.613595 168.545678,114.601382 C168.542515,114.559818 168.496258,114.371301 168.164355,113.52209 C167.981898,113.054442 167.837987,112.702426 167.734206,112.47077 Z M161.90505,111.959588 C161.462249,111.959588 161.327432,111.994455 161.288292,112.011199 C161.270698,112.181593 161.261803,112.58581 161.261803,113.215578 L161.261803,113.215578 L161.261803,113.959588 C161.308257,113.963932 161.38298,113.970038 161.480831,113.97713 C161.747895,113.991313 162.04382,113.998404 162.35813,113.998404 C163.092903,113.998404 163.450108,113.702924 163.450108,113.095022 C163.450108,112.616146 163.315687,112.294663 163.050204,112.139634 C162.845013,112.020063 162.459737,111.959588 161.90505,111.959588 Z M173.902025,66.1874332 L173.557669,66.5128559 L169.936191,69.9337335 L163.432554,83.7159348 L160.126968,88.7720022 L158.089491,96.7233858 L161.091641,91.2166119 L165.198025,85.7683432 L173.902025,66.1874332 Z M196.8055,71.1601751 L191.824387,79.3030302 L190.372633,84.0013691 L190.533544,86.7004861 L196.8055,71.1601751 Z M189.450461,69.9199444 L184.46915,78.0629965 L183.017593,82.7613354 L183.178306,85.4604524 L189.450461,69.9199444 Z M183.224563,68.3507453 L177.907989,76.2804604 L176.261916,80.9147785 L176.309952,83.6184262 L183.224563,68.3507453 Z M203.999629,51.2904821 L137.999778,51.2904821 C137.112035,51.2904821 136.380691,51.8411497 136.302171,52.5413934 L136.295192,52.6664368 L136.295192,79.0437952 L142.546986,76.3793479 L144.698721,74.8424547 L147.287919,74.5237296 L147.774407,72.8258979 L148.480912,71.9313795 L150.810755,71.6087147 L151.785115,69.9892839 L152.665577,69.880941 L153.652983,68.4584973 L155.457791,68.9029001 L157.413627,68.7945572 L159.40287,69.6341162 L161.028186,67.0918009 L163.856378,65.686889 L164.937089,64.2717338 L166.800608,63.9455232 L168.597114,62.5079115 L171.475319,64.9271099 L173.753569,66.114548 L173.879885,65.8637834 L176.801184,62.3810518 L177.201089,62.3810518 L179.110074,60.197647 L180.796473,60.7856534 L182.592781,58.123964 L189.766945,60.9215745 L193.854945,63.7778872 L196.743429,66.6292752 L198.362815,67.1938402 L199.264231,66.4023461 L202.01434,67.6096799 L203.930046,68.8042096 L205.704808,70.1957264 L205.704808,52.6664368 C205.704808,51.9078396 204.939988,51.2904821 203.999629,51.2904821 Z" id="CMC-logo"></path>
        </g>
    </g>
</svg>