<svg xmlns="http://www.w3.org/2000/svg" viewBox="0 0 2683 1925.1"><g fill="#122634">
  
  <path d="M1690.2,1509.2l-128.4-223.1c-17.3-2.1-30.7,5.4-40.7,24.7l150.3,271.4,50.9,90.6c6.4,11.4,23,12.4,32.6,7,10.9-6.2,18.2-20.9,11.4-33.3l-76.1-137.3Z"></path>
  <path d="M697.1,1016.4l-212.7,114c-13.8,7.4-18.6,22.1-12.3,35.7,6,12.8,22.6,18.2,36.9,10.6l192.5-102.7c-2.7-19-4.2-38.2-4.4-57.6Z"></path>
  <path d="M729.7,1176.6c-6.3-15.1-11.9-31.4-16.8-49.1-.2-.5-.3-1.1-.4-1.6l-164.1,104.5c-12.4,7.9-15.7,23.3-9.2,35.3,5.7,10.4,22.5,18,34.9,10.1l155.7-99.2h0Z"></path>
  <path d="M777.7,1256.1c-7.7-9-14.8-18.5-21.3-28.5l-8.4,7.4-100.9,89.1-60.6,53.3c-10.8,9.5-9.5,25.5-.9,35,9.2,10.2,24.5,13.4,35.8,3.5l35.8-31.4,131.9-116.3c-3.9-3.9-7.7-8-11.3-12.2Z"></path>
  <path d="M876.6,1319c-5.3-1.4-10.5-3-15.7-4.9l-17.1-7.7-150.2,161.7c-10.5,11.3-7.1,27.8,2.6,36.6,11.2,10.1,27.1,8.3,37.9-3.3l165.8-177.8c-7.8-1-15.6-2.5-23.4-4.6Z"></path>
  <path d="M1036.8,1278.9c-11.3,11.1-24.2,20.5-38.4,27.7-28.6,34.8-71,88.2-71,88.2l-176.3,243c-8.6,11.8-6.6,25.9,3.2,35.6,8.1,8.1,26.7,11.9,35.7-.4l270.7-369.5c-1.9-17.4-13.1-22.9-23.8-24.7Z"></path>
  <path d="M1127.7,1336.3c-11.8-14.8-19.5-28.6-39.3-24.3l-201.7,374.5c-6.8,12.6,1.1,27.4,11.1,33.1,11.6,6.6,27.8,4.7,34.9-8.6l196.3-372.1c-.4-.8-.9-1.7-1.3-2.6Z"></path>
  <path d="M1181.9,1407.1c-11.4-10.5-21.7-21.8-30.9-33.8l-6.8,22.8-121.9,359.1c-5.3,15.7-1.1,30.9,15,36.6,14.2,5,28.9-2.8,34.2-18.3l121.3-357.1c-3.6-2.9-7.3-6-10.9-9.3Z"></path>
  <path d="M1250.1,1446.2c-11.1-2.9-21.7-7.2-32.1-12.9l-60.4,379.6c-2.3,14.7,9.4,26,21.3,27.9,12.9,2.1,27.8-5.5,30.2-20.5l59.1-370.1c-6-1.2-12.1-2.5-18.1-4.1Z"></path>
  <path d="M1318.8,1455.2c-5.1,0-10.2-.2-15.3-.5v443.2c0,15.8,11.6,26.9,25.7,27.1,14.7.2,26.8-10.8,26.8-26.9v-445.6c-12.3,1.8-24.7,2.7-37.2,2.7Z"></path>
  <path d="M1465.3,1513.5l-15.9-100.5c-15.2,12.6-31.1,21.9-48.2,28.3l59.6,367.7c2.4,14.6,16,22.4,29.4,20.8,10.4-1.3,24-13.5,21.7-27.4l-46.7-288.9Z"></path>
  <path d="M1507.3,1342.3c-6.2,11.4-13.3,22.3-21.3,32.4-5,6.3-9.9,12.2-15,17.6l2.4,7.7,142.3,391.6c5,13.9,18.9,19.5,31.9,15.9,10.4-2.9,22.7-16.9,17.7-30.8l-158-434.4Z"></path>
  <path d="M1658,1284c-25.4-3.7-48.3-12.9-67.4-26.9-4.2,2.7-8.2,7.8-10.9,17.4l32.4,41.3h.2c0-.1,40.6,48.5,40.6,48.5l219,265.5c10.4,12.7,25.4,16.5,39.2,6.8,11.9-8.4,15.4-26.8,4.6-39.9l-257.6-312.6Z"></path>
  <path d="M1914.7,1406.1l-32.7-31.1-114.2-110.5-25.9,11.4c-9.6,3.3-19.6,5.8-29.6,7.5l25.3,24.6,42.3,41.3,142.7,137.5c10.6,10.2,24.4,11,35.9,2,9.5-7.5,15.1-24.7,4.5-35.1l-48.2-47.5Z"></path>
  <path d="M2077.2,1364.5l-151.6-107-84.9-59.4c-9.6,13.6-20.6,26.2-33.5,38.5-.3.3-.6.6-.9.9l245.2,172.3c11.7,8.3,29.3-1,34.4-10.3,6.8-12.6,3.4-26.5-8.6-34.9Z"></path>
  <path d="M2078.7,1232.7l-199.7-111.1c-2.9,7.9-6,15.7-9.4,23.4l-11.6,24.2,195.2,108.9c12.8,7.1,28,.4,34.1-10.1,6.8-11.9,4.3-28.2-8.6-35.3Z"></path>
  <path d="M2145.7,1136.5l-243.6-110.5c-2.3,18.5-5.8,36.8-10.5,54.8l231.5,103.7c14.4,6.5,29.4,1.3,35.5-11.6,6.2-13.3,1.9-29.8-12.9-36.5Z"></path>
  <g>
    <path d="M2406.4,102.5C2289.4,35.5,2157-1.1,2021.6,0c-96.1.8-184.8,25.9-266.8,73.1-124.1,71.4-219.6,171.2-310.5,280.4l33.1-66.4c-68.9-21.7-140.4-24.1-209.6-10.1l48.4,86-77.8-84.5c-72-78.2-154.4-149.3-247.4-201.5C904.1,28.4,810.2,2.2,710.3.4,484.5-3.8,268.4,86.5,127,264.4,52.8,359.9,10.7,473.7,1.4,594.7c-9.1,118.7,25.7,237.3,104.2,330.3C-12.6,657.7,86.2,388.2,321.6,232.9l-18.7-49.5,39.4,37.8c35.9-20.1,71.4-34.7,109.9-46.4l-8.3-55.2c1-2.8,2.8-3.5,5.4-2.3l28.3,51.4c40.5-9.9,78-14.9,117.5-16.6l17-80,13.7,80.4c35.4,1.8,68.8,5.4,104.6,14.6l41.9-86-9.5,94.7c37.6,9.9,70.2,25.3,103.2,42.5l54.8-65.9c4.3-.6,5.6,2.7,4,10l-25.5,74.7c33.5,20.9,61.2,43.5,90.7,66.1l79.7-59.4c3.3-1.3,4.5.5,3.4,5.3l-56,80c40.6,39.2,72.3,82.1,104,125.4,1,3.2-.7,4.4-5.2,3.7l-77.3-52.3c-15.7,18.4-28,37.2-41,59.9-109.4-48.4-227.5-8.3-333.7,43.8,61.8,69.2,143.7,129.3,241.3,127.7-129.1,123.2-209.6,306.1-160.4,482.1,12.3,43.8,29.4,82.7,58.8,117.2,44.6,52.4,118,75.1,181.7,44.5,49.7-23.9,76.5-77.4,77.6-133.2-27.9,50.7-84.5,75.7-139.1,50.7l-33.6,39.1,15.7-48.6c-14.9-14.6-27.5-30.2-35.9-50.3l-54.5,13.6,46.2-34.3c-5.8-27.9-10-54.7-7.6-85l-65-20.5,66.4-6.7c5.7-27.8,12.9-53.4,24.8-79.2l-61.5-40.7,73.7,16c17.6-30.1,38.2-55.5,62.1-81.1,19,80.3,39.3,148.6,107.2,197.7l64.5,46.6,7,165.1c2.6,60.4,28,114.2,71.9,154.5,15.9,14.6,34.1,26.5,55.6,32.2,41.2,10.9,84.8,11,125.6-1.5,33.2-10.1,58-32.8,79-59.6,28.9-36.8,43.4-81.4,45.6-129l7.5-161.7c74.6-48.6,130.3-90.9,154.6-179.9,6.6-24.2,13.6-46.4,16.5-72.8,21.1,21.9,33.1,44.4,46.1,70l70.1-12.3-60.3,38.4c10.4,25.1,15.9,48.8,16.6,75.2l59.5,9.7-57.1,14.3c-1.8,27.8-5.2,53.7-13.4,80l47.3,37-57.1-15.7c-8.5,18.2-20.3,32.6-35.1,46l14.8,45.4-31.3-37.4c-51,23.7-106.7-1-133.9-49.3,1.2,36.4,12.6,69,33,96.4,43.8,59.1,142.2,60,200.7,4.3,19.5-18.5,34.2-37.8,46.4-62.1,86.9-173.6,34-376.5-93-519.8,98,22.9,182.7-14.7,252.4-79.8,15.4-12.3,29.5-24.3,41.6-42.5-105.9-52.2-226.1-92.9-335.6-43.1l-23.2-48.8-51.3,40.1c-3,.8-4.4-1.4-4.1-6.5,26.3-42.7,54.5-82.4,90-120.3l-59.3-86.8c-2.5-3.1-.9-3.2,4.8-.5l80.7,60.8c26-25.2,53.9-46.1,84.3-68.4l-34.3-96.7,66,78.4c32.9-19,65.1-31.7,99.3-44.2l-9.9-92.9,40,85.1c35.7-10.4,70.5-13.6,106.9-15.7l9.5-75.5c9.8,25.7,11.9,49.9,18.2,74.8,41.2,1.2,79.3,5.1,118.8,15.4l32.1-60.2-8.6,67.5c39,9.2,73.7,23.2,108.7,42.7l36.3-36.3-16.1,47.7c170.2,102.7,275.7,279.5,276.9,480.8,14.3-42.7,16-86.3,16-132.4.1-197.2-106-375.7-276.4-473.2l-.2.4h0ZM853.9,588.7c-31.6-15.7-59.3-35-90.7-59.7,25.5-13.2,51.6-16.5,78-23,40.3-5.1,79.4.8,117.3,15.4l78.7,35.6c-55,38.1-123.2,65.1-183.3,31.7h0ZM1941.1,529.8c-59.1,46.5-122.4,93.9-194.7,69.2-28.9-9.9-54.1-21.3-79.2-40.7,97.7-52.5,172-70.2,274-28.5h-.1ZM1631.6,674.9c23.1,57.3,19.4,115.9,2.2,174.4-16.4,55.5-42.6,105.2-90.7,139.3l-67.1,41.7-11.7,210.2c-2.4,43.8-22.9,81.1-57,109.3-49,40.5-125.4,40.3-174.3-2.6-26.4-23.1-50.2-57.1-51.9-92.7l-10.3-209.5c-.7-13.6-3.5-19-17.1-26.1-38.2-19.9-74.4-42.1-99-77.6-57.7-83.4-82.1-213.8-21.3-299.9,45.6-64.6,132.5-77.4,195.9-26.6,15.3-21.8,29.3-44,54.2-54.7,24.6-10.6,56.3-10,80.7.8,24.1,10.6,37.1,32.6,51.8,54.2,39.8-27.2,84.3-39.4,129-25.3,41.2,13,70.7,45.8,86.6,85.1h0Z"></path>
    <g>
      <path d="M1622.6,452.3l4.1,6.5-16.8,14.9c1.5-8.9,8.1-14,12.7-21.4h0Z"></path>
      <path d="M924.8,162.5c0-4.3-1.3-7.4-4-10,4.4-5.3,5.4-12.9,14.3-15.5l-10.3,25.5Z"></path>
      <path d="M1115.9,458.3l5.2-3.7c2.7,3.7,8.3,5.9,9.1,13.1-7.2-.6-9.8-6.3-14.2-9.3h0Z"></path>
      <path d="M1073,249.2l-3.4-5.3c1.8-1.4,4-6.1,8.3-5.7,2.5.3,1.7,5.3,0,6.5s-3.4,2.5-4.8,4.5Z"></path>
      <path d="M449.3,117.3l-5.4,2.3c-.4-2.7-5.2-8.7-.8-12.3,4-.8,4.7,7.3,6.2,10.1h0q0,0,0,0Z"></path>
      <path d="M1653.2,245.2c-2.1-.6-6.1-3.7-6.3-6,5.5-3.6,8.5,3.5,11.1,5.6l-4.8.5h0q0-.1,0-.1Z"></path>
    </g>
    <g>
      <path d="M1622.6,452.3l4.1,6.5-16.8,14.9c1.5-8.9,8.1-14,12.7-21.4h0Z"></path>
      <path d="M924.8,162.5c0-4.3-1.3-7.4-4-10,4.4-5.3,5.4-12.9,14.3-15.5l-10.3,25.5Z"></path>
      <path d="M1115.9,458.3l5.2-3.7c2.7,3.7,8.3,5.9,9.1,13.1-7.2-.6-9.8-6.3-14.2-9.3h0Z"></path>
      <path d="M1073,249.2l-3.4-5.3c1.8-1.4,4-6.1,8.3-5.7,2.5.3,1.7,5.3,0,6.5s-3.4,2.5-4.8,4.5Z"></path>
      <path d="M449.3,117.3l-5.4,2.3c-.4-2.7-5.2-8.7-.8-12.3,4-.8,4.7,7.3,6.2,10.1h0q0,0,0,0Z"></path>
      <path d="M1653.2,245.2c-2.1-.6-6.1-3.7-6.3-6,5.5-3.6,8.5,3.5,11.1,5.6l-4.8.5h0q0-.1,0-.1Z"></path>
    </g>
    <path d="M1341,1223.2v-56c14.5-18.4,40.9-27.3,59.6-40.9,14-10.3,9.2-42.1-4.5-49.1-23.5-12-51.2,40.4-79.6,33.3-18.7-4.6-56.3-49.2-72-31.8h0c-7.2,8.1-12,28.2-7.8,38.5,5.8,14.2,24.1,15,34.3,23.2l37.5,30.2.4.3.2,52.6c-43.6,16.9-94.8,13.6-134-10.5v37.8c52.6,21.9,101.4,21.4,150.5,1.6,46.3,19.3,92.4,20.1,145.2.2v-37.2c-39.3,21.9-87.3,25.1-129.8,7.8h0Z"></path>
    <path d="M1092.3,691c-21.2-5.3-42-.4-63.7,4.7-3.3,13.2,1.6,40.3,5.1,45.4,13.6,37,46.3,53.9,82.1,42.7,11.5-3.6,24.5,1,28.5,14l20.6,66.9c21.4-61.2-10.5-158.1-72.6-173.7ZM1086.2,763.6c-21.2-2.6-32.1-24-31.9-42.2,32.8-4.3,48.6,5.5,67.2,34.3-11.2,4.8-24.1,9.3-35.2,7.9h0Z"></path>
    <path d="M1617.4,695.7c-21.7-5.1-42.6-10-63.7-4.7-62.1,15.6-94,112.5-72.6,173.7l20.6-66.9c4-13.1,17-17.6,28.5-14,35.8,11.2,68.4-5.7,82.1-42.7,3.5-5.1,8.4-32.2,5.1-45.4ZM1558.1,763.6c-11.2,1.4-24-3-35.2-7.9,18.5-28.8,34.3-38.6,67.2-34.3.1,18.2-10.8,39.7-31.9,42.2h0Z"></path>
  </g>
</g></svg>