<?xml version="1.0" encoding="UTF-8"?>
<svg id="Layer_1" data-name="Layer 1" xmlns="http://www.w3.org/2000/svg" viewBox="0 0 500 500">
  <defs>
    <style>
      .cls-1 {
        fill: #004667;
      }

      .cls-2 {
        fill: #009dd6;
      }
    </style>
  </defs>
  <polygon class="cls-2" points="250.56 50 166.79 219.38 199.18 280.25 251.12 218.85 301.91 280.25 333.21 218.26 250.56 50"/>
  <path class="cls-1" d="M333.28,330.73c8.06-7.83,14.36-10.68,18.46-12.41,4.6-1.95,4.95,1.12,3.41,3.9-10.55,18.95,5.11,33.95,13.59,40.48,6.23,4.79,7.83,8.48,57.45,37.45l-14.08-26.93-58.99-118.67-42.43,81.95-59.2-70.57-60.31,68.89-44.21-76.36-73.13,147.32c8.52-6.54,24.83-26.11,52.23-44.38,8.27-5.51,21.53-15.66,41.1-19.69,22.18-4.57,9.79,3.91,3.91,9.25-48.33,43.9,23.49,57.95,34.71,68.23,3.07,2.81,2.54,6.18-.69,8.76-2.32,1.85-15,10.24-21.18,13.54-2.98,1.59-8.31,4.9-14.04,8.52h117.93c5.3-4.8,10.24-10.39,14.29-14.18,30.11-28.11-105.58-60.84-63.18-76.34,9.27-3.39,24.14-3.26,26.14-12.98,1.62-7.87.44-15.7-1.93-23.29-.1-.31-.16-.63-.33-1.28,40,33.94,73.32,64.3,112.19,98.01.08.07.15-.16.23-.24-16.11-19.81-39.28-51.63-55.42-71.47.25-.19,2.68-7,13.47-17.5Z"/>
</svg>